<?xml version="1.0" encoding="utf-8"?>
<!-- Generator: Adobe Illustrator 16.0.0, SVG Export Plug-In . SVG Version: 6.00 Build 0)  -->
<!DOCTYPE svg PUBLIC "-//W3C//DTD SVG 1.1//EN" "http://www.w3.org/Graphics/SVG/1.1/DTD/svg11.dtd">
<svg version="1.1" xmlns="http://www.w3.org/2000/svg" xmlns:xlink="http://www.w3.org/1999/xlink" x="0px" y="0px" width="800px"
	 height="800px" viewBox="0 0 800 800" enable-background="new 0 0 800 800" xml:space="preserve">
<g id="home">
	<path fill="#404040" d="M793.889,397.167l-116.111-95.694V109.111c0-9.167-7.5-16.667-16.667-16.667h-77.777
		c-9.167,0-16.667,7.5-16.667,16.667v100.833L442.36,107.583c-24.583-20.278-60.139-20.278-84.722,0L6.111,397.167
		c-7.084,5.833-8.056,16.389-2.223,23.472l35.417,43.056c5.833,7.083,16.389,8.056,23.472,2.223l326.667-269.028
		c6.11-5,15-5,21.25,0L737.36,465.917c7.083,5.833,17.639,4.86,23.473-2.223l35.416-43.056
		C802.083,413.416,800.972,403,793.889,397.167z"/>
	
		<path fill="#404040" stroke="#404040" stroke-width="4" stroke-linecap="round" stroke-linejoin="round" stroke-miterlimit="10" d="
		M701.639,778c-3.69,0-610.582,0-613.349,0c-2.768,0-6.29-1.896-6.29-8.08s0-40.563,0-44.851s1.887-8.987,7.422-9.069
		c6.668,0,610.539,0,612.552,0c2.013,0,4.025,1.21,4.025,5.771s0,46.634,0,49.523S705.33,778,701.639,778z"/>
	<line fill="none" x1="369" y1="530" x2="368" y2="530"/>
</g>
<g id="plant" display="none">
	<path display="inline" fill="none" stroke="#404040" stroke-width="20" stroke-miterlimit="10" d="M263.5,416H220
		c0,84.077,68.173,152.25,152.25,152.25v97.875c0,5.981,4.894,10.875,10.875,10.875h21.75c5.981,0,10.875-4.894,10.875-10.875
		V568.25C415.75,484.173,347.577,416,263.5,416z M524.5,372.5c-57.229,0-106.982,31.605-133.015,78.3
		c18.827,20.526,32.761,45.472,40.102,73.135C508.188,515.982,568,451.275,568,372.5H524.5z"/>
</g>
<g id="Ebene_5" display="none">
	<path display="inline" fill="none" stroke="#404040" stroke-width="11" stroke-linecap="round" stroke-miterlimit="10" d="
		M363,539.667c-7.75-19.667-28.667-36-57.333-33.333"/>
	<path display="inline" fill="none" stroke="#404040" stroke-width="11" stroke-linecap="round" stroke-miterlimit="10" d="
		M476.709,455.914c20.552-4.945,39.629-23.393,40.967-52.152"/>
	<path display="inline" fill="none" stroke="#404040" stroke-width="11" stroke-linecap="round" stroke-miterlimit="10" d="
		M446.709,474.914c20.552-4.945,39.629-23.393,40.967-52.152"/>
	<path display="inline" fill="none" stroke="#404040" stroke-width="11" stroke-linecap="round" stroke-miterlimit="10" d="
		M331,508.667c-7.75-19.667-28.667-36-57.333-33.333"/>
</g>
<g id="Ebene_4" display="none">
	<path display="inline" fill="none" stroke="#404040" stroke-width="11" stroke-linecap="round" stroke-miterlimit="10" d="
		M363,539.667c-7.75-19.667-28.667-36-57.333-33.333"/>
	<path display="inline" fill="none" stroke="#404040" stroke-width="11" stroke-linecap="round" stroke-miterlimit="10" d="
		M438.775,474.731c19.014-9.238,25.475-22.204,29.6-44.408"/>
	<path display="inline" fill="none" stroke="#404040" stroke-width="11" stroke-linecap="round" stroke-miterlimit="10" d="M318,482
		c0,9.5,0.503,18.999,22.364,31.016"/>
	<path display="inline" fill="none" stroke="#404040" stroke-width="11" stroke-linecap="round" stroke-miterlimit="10" d="
		M487.25,447.75c-7.166-2.417-19.373-0.5-25,5.5"/>
</g>
<g id="paw">
	<path fill="#404040" d="M277.689,559.87c-34.395,0-59.547-39.939-59.547-69.487c0-19.767,11.178-40.552,34.61-40.552
		c34.396,0,59.547,40.144,59.547,69.691C312.3,539.289,301.337,559.87,277.689,559.87z M520.824,634.045
		c0,25.88-22.357,29.955-44.285,29.955c-28.806,0-52.023-18.34-79.539-18.34c-28.807,0-53.314,18.136-84.485,18.136
		c-20.853,0-39.34-6.725-39.34-29.751c0-48.295,71.156-120.024,123.825-120.024C449.667,514.021,520.824,585.954,520.824,634.045z
		 M345.622,471.024c-34.826,0-55.893-41.57-55.893-70.099c0-22.823,12.468-49.926,40.2-49.926c35.041,0,55.893,41.57,55.893,70.099
		C385.821,443.922,373.353,471.024,345.622,471.024z M408.179,421.099c0-28.528,20.852-70.099,55.893-70.099
		c27.731,0,40.2,27.103,40.2,49.925c0,28.528-21.067,70.099-55.895,70.099C420.646,471.024,408.179,443.922,408.179,421.099z
		 M575.857,490.383c0,29.548-25.152,69.487-59.548,69.487c-23.647,0-34.61-20.581-34.61-40.348c0-29.547,25.15-69.691,59.548-69.691
		C564.678,449.831,575.857,470.616,575.857,490.383z"/>
</g>
</svg>
